<svg xmlns="http://www.w3.org/2000/svg" viewBox="0 0 824.67 318.94">
	<defs>
		<style>
		.cls-1 {
			fill: #fff;
		}

		.cls-2 {
			fill: #197f21;
		}

		@media screen and (min-width: 300px) {
			.cls-1 {
				fill: #197f21;
			}
			.cls-2 {
				fill: #fff;
			}
		}
		</style>
	</defs>
	<title>logo</title>
	<path class="cls-1" d="M647 199v-39.6l38-96h-36l-18 62-18.4-62H576l37.8 96V199H580v-17h-40V63.5h-34V199h-26l-33.4-67L485 63.6h-37.7L416.5 126h-.7V63.4h-34V199h-24v-16h-42.4v-32.3H352v-28h-36.6V93.4h40V63.5H283V199h-24v-16h-42.4v-32.3h36.7v-28h-36.7V93.4h40V63.5h-72.3V199h-44.8L165 63.4h-32.7L117 168h-.5l-17-104.5H67L50.6 168h-1L34.5 63.4H0L25.4 199h-5.8v68h734v-68H647zM82 112.7h.5l15.8 86H66.6zm-6.5 110.4h-11v32.4H49v-32.4H38v-13h37.5v13zm26.4 32.4H86.5v-45.3H102v45.3zm71 0h-15l.5-25.5h-.3l-8.5 25.6H139l-8.4-25.6h-.3l.7 25.6h-14.2v-45.3h20l8 24.4h.4l7.2-24.4H173v45.3zm51.4-7a12.2 12.2 0 0 1-4 4 17 17 0 0 1-5.7 2.3 31.2 31.2 0 0 1-6.5.6h-20.5v-45.3h18.6a44.4 44.4 0 0 1 6 .4 19.2 19.2 0 0 1 5.6 1.7 11.3 11.3 0 0 1 4.3 3.6 10.6 10.6 0 0 1 1.7 6.3 9.6 9.6 0 0 1-1.8 6 10.8 10.8 0 0 1-4.8 3.5v.2a12.2 12.2 0 0 1 3 1.3 11.3 11.3 0 0 1 2.8 2 10 10 0 0 1 2 3 10 10 0 0 1 .7 4 12 12 0 0 1-1.7 6.3zm46.3 7h-32.2v-45.3h31V223H253v4h15.8v11.7h-15.8v4.2h18v12.6zm36.7 0l-8.7-16.2h-.4v16.2h-15v-45.3H303a33 33 0 0 1 6.6.6 16.7 16.7 0 0 1 6 2.3 13 13 0 0 1 4 4.6 14.4 14.4 0 0 1 1.7 7 12.8 12.8 0 0 1-8 12.2l11.6 18.4h-17.6zm82.8 0l-3.2-3.3a16.8 16.8 0 0 1-5.2 3 21.7 21.7 0 0 1-7.6 1.2 27.6 27.6 0 0 1-6.5-.8 18 18 0 0 1-5.7-2.4 13.2 13.2 0 0 1-4-4.3 12.4 12.4 0 0 1-1.7-6.5 11.5 11.5 0 0 1 .7-4 12.5 12.5 0 0 1 2-3.5 14 14 0 0 1 2.7-2.6 17 17 0 0 1 3.5-2 15 15 0 0 1-3.2-4 10.8 10.8 0 0 1-1.2-5.3 10 10 0 0 1 1.5-5.6 12 12 0 0 1 3.8-3.7 17.2 17.2 0 0 1 5.4-2 26 26 0 0 1 5.6-.7 23.8 23.8 0 0 1 5.6.7 16 16 0 0 1 5 2 11.8 11.8 0 0 1 3.6 4 10.8 10.8 0 0 1 1.5 5.6 10 10 0 0 1-.7 3.8 11 11 0 0 1-2 3.2 16.4 16.4 0 0 1-2.7 2.5 31 31 0 0 1-3.4 2l3 3 3.6-5h16l-11 13.2 12.3 11.6h-18zm25.7-112h.5l25.3 55.3h-26v-55.3zm61 89a13.7 13.7 0 0 1-4.2 5 17.2 17.2 0 0 1-6 2.6 28.5 28.5 0 0 1-6.8.8h-4.3v14.6h-15.2v-45.3H460a31.4 31.4 0 0 1 6.8.7 17.3 17.3 0 0 1 6 2.5 13.2 13.2 0 0 1 4.2 4.7 17.4 17.4 0 0 1 0 14.5zm55.5 5.2a20.3 20.3 0 0 1-1.4 7.6 16.7 16.7 0 0 1-4 6 19 19 0 0 1-6.6 4 27 27 0 0 1-9.3 1.4 26.4 26.4 0 0 1-9.2-1.4 18.5 18.5 0 0 1-6.6-4 16 16 0 0 1-3.8-6 21.6 21.6 0 0 1-1.4-7.6v-27.5h15.2V236a7.6 7.6 0 0 0 1.6 5.2 6.3 6.3 0 0 0 9 0 7.6 7.6 0 0 0 1.5-5v-26h15V238zm44.6 17.8h-30.3v-45.3H562v32.2h15v13zm47.7-23a13.7 13.7 0 0 1-4.2 5 17.2 17.2 0 0 1-6 2.6 28.5 28.5 0 0 1-6.8.8h-4.3v14.6h-15.2v-45.3h19.5a31.4 31.4 0 0 1 6.8.7 17.3 17.3 0 0 1 6 2.5 13.2 13.2 0 0 1 4.2 4.7 17.4 17.4 0 0 1 0 14.5zM462 223a4.8 4.8 0 0 0-1.5-.5 8.8 8.8 0 0 0-1.7-.2h-3.2v7.4h3.2a6 6 0 0 0 3.2-.8 3 3 0 0 0 1.4-3 3.5 3.5 0 0 0-.3-1.7 2.8 2.8 0 0 0-1-1.2zM208.6 227a2.6 2.6 0 0 0 1-2.3 2 2 0 0 0-1-2 5.7 5.7 0 0 0-3-.5H202v5.5h4a4.4 4.4 0 0 0 2.6-.7zm163 12.3a3.3 3.3 0 0 0-1 2.4 3 3 0 0 0 .5 1.6 3.5 3.5 0 0 0 1 1 4.2 4.2 0 0 0 1.5.7 6 6 0 0 0 1.5.2 6.6 6.6 0 0 0 2.2-.4 3.8 3.8 0 0 0 1.6-1l-5.6-5.7a4.5 4.5 0 0 0-1.7 1.3zm5.5-20.5a2.7 2.7 0 0 0-2 1 3 3 0 0 0-.8 2 3.6 3.6 0 0 0 .6 2 7.5 7.5 0 0 0 1.8 1.7 6.8 6.8 0 0 0 2.4-1.5 3.3 3.3 0 0 0 .3-4.4 2.6 2.6 0 0 0-2.2-.8zm-72.2 4a4.5 4.5 0 0 0-1.5-.5 13.2 13.2 0 0 0-1.6 0H298v7.2h3a12.2 12.2 0 0 0 1.8-.2 5.2 5.2 0 0 0 1.7-.5 4 4 0 0 0 1.3-1.2 3.2 3.2 0 0 0 .6-2 3.6 3.6 0 0 0-.5-2 3 3 0 0 0-1.2-1zm305 0a4.8 4.8 0 0 0-1.5-.5 8.8 8.8 0 0 0-1.7 0h-3.2v7.2h3.2a6 6 0 0 0 3.2-1 3 3 0 0 0 1.4-2.8 3.5 3.5 0 0 0-.4-1.8 2.8 2.8 0 0 0-1-1.2zm-401 15.3a5.2 5.2 0 0 0-1.5-.4 9.6 9.6 0 0 0-1.5 0h-4v6h4.7a5 5 0 0 0 3-.8 2.7 2.7 0 0 0 1-2.3 2.2 2.2 0 0 0-.5-1.5 3.6 3.6 0 0 0-1.2-1z" />
	<path class="cls-1" d="M736.6 317.4a1.5 1.5 0 0 1-1.5-1.6l.8-8.2a122.5 122.5 0 0 0-.3-16.5 41 41 0 0 0-1-6h-.7a24.7 24.7 0 0 1-6.6 1 11.3 11.3 0 0 0-2.2.2c-.8 1.3-3 1.3-4 1.3h-1.7c-2 0-2 .4-2.4 1a4.6 4.6 0 0 1-4.3 3.4 3 3 0 0 1-2-1 3.2 3.2 0 0 1-1-2.3 4.8 4.8 0 0 0-2.3 1 3 3 0 0 1-1.6.5 1.7 1.7 0 0 1-1.5-.8 2.2 2.2 0 0 1-.2-1.8h-.2a12.4 12.4 0 0 1-1.8.3 1.6 1.6 0 0 1-1.8-1.3 1.5 1.5 0 0 1 .4-1.5 6.4 6.4 0 0 1-3-2.2c-.5 1.5-1.3 2.6-2.6 2.6a2.7 2.7 0 0 1-2.6-1.7h-.3a9.4 9.4 0 0 0-1.2 0 8 8 0 0 1-1.5 0 4.3 4.3 0 0 1-2-.3h-.2a3.3 3.3 0 0 1-2.4.7c-1.2 0-2.6-.2-3-1.3a1.7 1.7 0 0 1 .3-1.8 3.3 3.3 0 0 1 2.2-.8 4.5 4.5 0 0 1 1.7.4h.2a3.8 3.8 0 0 1 3.6-2 4.4 4.4 0 0 0 2.8-1.2 12.2 12.2 0 0 1 5-3 48 48 0 0 1-9.6-.8 8 8 0 0 0-5 .5 6.3 6.3 0 0 1-3 1 2.5 2.5 0 0 1-2.3-1.6 6 6 0 0 1-2 .3c-1.6 0-7.7-.7-8.8-2.7a1.8 1.8 0 0 1 0-2c.4-.7 1.6-1.2 3.5-1.2a14.3 14.3 0 0 1 1.5.2 2.4 2.4 0 0 1-.8-1 .8.8 0 0 0-.4-.5c-1.8 0-3.4-2.2-4-3.5a3.5 3.5 0 0 0-3.2-2.2c-5-.2-6.6-.2-7-1.8s.8-2.3 2.2-3.4l1.2-.8-.4-.3c-1.4-1-2.7-4-3.2-6.3s-.3-4 .5-5a2.6 2.6 0 0 1 2-1c1.5 0 3.3 1.2 5.5 3.6 2.7 3 6 4.7 8.6 4.7a4.3 4.3 0 0 0 2-.5 5.8 5.8 0 0 0 1.5-1 2.4 2.4 0 0 1-1.2-.8 2.8 2.8 0 0 1-.6-1.8 3 3 0 0 1-1.7-.6 2.3 2.3 0 0 1-.8-1 3.3 3.3 0 0 0-.7 0 6.2 6.2 0 0 1-1.6.4 2.5 2.5 0 0 1-2.3-1 1.8 1.8 0 0 1-.3-1.4 8 8 0 0 0-1-2.8c-1-1.7-1.7-3.5-1-5.2a3.4 3.4 0 0 1 .7-1 2.5 2.5 0 0 1-1.4-2.3c0-1.6 1.7-2.7 4-2.7a5 5 0 0 0 1.3-.2 6 6 0 0 0-2-1.2l-4-1.6a1.5 1.5 0 0 1 0-3l4.5-1-1.3-1c-4-3.5-4-4.2-4-4.7s.2-1.8 2.4-1.8a37 37 0 0 1 9.6 1.8c.8.4 2 .7 2.4.8a5 5 0 0 1 2.6 1.6s1 .4 3 .4a21.2 21.2 0 0 0 6-.8c-2.2 0-5-1.8-6.6-3.4-1.4-1.4-2.5-2-3-2a.6.6 0 0 0-.2 0 4.6 4.6 0 0 1-1.7.5 2 2 0 0 1-1.6-1 2 2 0 0 1-.2-1h-.2c-2.2 0-4.2-2.4-5.3-6-.3-1-.7-1-1-1a1.8 1.8 0 0 0-.3 0 4.6 4.6 0 0 1-1.3 0c-2.8 0-3.3-3-3.5-4-.2-1.2-.3-3 .6-4a2 2 0 0 1 1.6-1c1 0 2 .8 2.7 2a2 2 0 0 0 1.7.6 2.5 2.5 0 0 0 2-1 4.6 4.6 0 0 1 2.6-2.5 3 3 0 0 1-2-2.2 1.6 1.6 0 0 0-.6 0c-.6 0-2 0-2.7-1.3a2.2 2.2 0 0 1 .4-2 2.3 2.3 0 0 1-1.2.2 1.8 1.8 0 0 1-1.3-.5 3.5 3.5 0 0 1-.7-2.8 5 5 0 0 1 .7-2.2c-1.5-1.3-2.3-2.5-2.3-3.4a2.2 2.2 0 0 1 2.3-2.3c1 0 3 .6 8.2 4.2 1.8 1.2 3 2 4 2.5a18 18 0 0 0-3-3.6c-1.7-1.7-2.6-3-3-4a11.3 11.3 0 0 1-2 .2 3 3 0 0 1-2.2-.8 3 3 0 0 1-.8-2.2 3.5 3.5 0 0 1 3-3.4 4.7 4.7 0 0 1-.5-2c0-2.8 1.7-3 2-3a2 2 0 0 1 1 .5 6.2 6.2 0 0 0 2.3-1 16 16 0 0 1 8-2h1.5a1.6 1.6 0 0 1-1-1 1.7 1.7 0 0 1 .7-1.7 6 6 0 0 1-1.8-2c-1-2-1.7-5-.5-7a2 2 0 0 1 1.8-1c1.8 0 5 1.6 7.2 3l1 .5a8.3 8.3 0 0 1 .7-1 2 2 0 0 0 .5-.7 4 4 0 0 0-1-1.2c-1.4-1.3-2-2.5-1.6-3.6a2 2 0 0 1 .2-.4 4.4 4.4 0 0 1-1 0 2 2 0 0 1-1.8-1 1.8 1.8 0 0 1-.2-1c-1.7-.3-3-1.4-3-2.7a3 3 0 0 1 3.4-3.4 11.6 11.6 0 0 1 5.4 2c1.6 1 2.7 1.5 3.3 1.5a4 4 0 0 0 2-1 9.2 9.2 0 0 1 2-1 1.6 1.6 0 0 1-.7-.5 2.2 2.2 0 0 1 0-2 2.3 2.3 0 0 1-1 .2c-1.7 0-2.2-1.5-3.3-4a5 5 0 0 0-1.7-2.8 3 3 0 0 1-.5 0c-1.8 0-3.2-1.5-3.6-4-.2-1.2-.3-2.4.5-3.3a2.5 2.5 0 0 1 2-.7 10 10 0 0 1 2 .3 10.7 10.7 0 0 0 2.7.4 4 4 0 0 0 1.7-.3v-.2a6 6 0 0 1-1.2-3.4 7.6 7.6 0 0 1-3.2 1 2.6 2.6 0 0 1-2-1c-1-1-.8-2.6-.5-4a6.4 6.4 0 0 0 .3-1.2 2.2 2.2 0 0 1-1.3-3.5 4 4 0 0 0-.8-1.8 1.8 1.8 0 0 1-.3-2 1.6 1.6 0 0 1 1.3-.8c.5 0 1 0 5 3.7a58.3 58.3 0 0 0 5 4 4.7 4.7 0 0 1 0-1.4v-3c0-1 .5-2.6 4-2.6a27.8 27.8 0 0 1 11.4 3l3.2.6c-.2-1.8-1-2-1.4-2-2.3-.6-3.8-2.2-3.6-3.8a2.2 2.2 0 0 1 1.4-1.8v-.2a3.8 3.8 0 0 0-3-1 3 3 0 0 0-1.3.2c.3 2-2 3.3-4 3.8a9.5 9.5 0 0 1-2.7.5 3.3 3.3 0 0 1-1.7-.4 2.2 2.2 0 0 1-.6-.5 4 4 0 0 1-2.3 1 2.7 2.7 0 0 1-2.3-1.2 2.3 2.3 0 0 1-.3-2 5 5 0 0 1 3.2-2.8c5-2 8.3-3.4 10.4-4.4h-.2a19.4 19.4 0 0 0-4.5-.4H705c-3 0-5.2-.2-5.4-2s2.3-2 4.5-2.4a6.2 6.2 0 0 0 4.2-2.2 3.5 3.5 0 0 0 .6-2.7c-.2-1.5-.3-2.6.3-3.4a1.8 1.8 0 0 1 1.4-.6 4.7 4.7 0 0 1 2.4 1 6.2 6.2 0 0 1 2.6 2.5 14 14 0 0 0 2.5.4h2a11.3 11.3 0 0 1 1.4-4.2l.2-.3a2.4 2.4 0 0 1-1.8-1.2 5 5 0 0 1-.4-2.3 1.6 1.6 0 0 0-.4-1 4.3 4.3 0 0 1-3.6-3.4 3 3 0 0 1 0-2.7 1.8 1.8 0 0 1 1.5-.7c.7 0 1.7.4 4.6 2 3 1.6 4.4 2.8 5 3.6a22.2 22.2 0 0 0 2.8.4h.3a7.2 7.2 0 0 1-1.5-2.4 13.3 13.3 0 0 0-3-1.7c-2-.8-3.3-2-3.7-3.3a2.2 2.2 0 0 1 .2-1.8 1.6 1.6 0 0 0-.5-.8c-1.3-1-2.8-3.8-3.6-6-1-2.6-1.3-3.6-.6-4.6a1.7 1.7 0 0 1 1.4-.7 5 5 0 0 1 2.4 1c1.7 1.2 2.6 2.5 2.7 3.7a6.2 6.2 0 0 0 1.6.3h.7a4 4 0 0 0 1.5-.2 2.5 2.5 0 0 1 1.5-2.2c-2-2.5-3-6-2-8a3.3 3.3 0 0 1 3.2-2h.3a1.6 1.6 0 0 0 1.3-1.2 4.2 4.2 0 0 1 2-2.8 5.6 5.6 0 0 1-2-2 2.3 2.3 0 0 1 0 .3c0 1.8-2.4 3-4.4 3.4a8.8 8.8 0 0 1-1.8.2c-3 0-3-1.8-3-2.2a2.6 2.6 0 0 1 2.5-2.6 13 13 0 0 0 2.6-.7 5 5 0 0 1 1.5 0 2.4 2.4 0 0 1 2 .6 3.4 3.4 0 0 1 0-.8c0-2.3 1-2.8 1.8-2.8a3.2 3.2 0 0 1 2.2 1.3 5.2 5.2 0 0 0 1 .7 3.8 3.8 0 0 1 .2-1.6 12.2 12.2 0 0 1-2.4-2.3c-1-1-1.8-2-1.3-3a1.6 1.6 0 0 1 .5-.6 1.6 1.6 0 0 1 0-1c.4-1.4 1.8-1.4 3-1.4a10.7 10.7 0 0 1-2.7-2.7c-1.6-2-2.3-3.2-1.7-4.3a1.7 1.7 0 0 1 1.5-1 4.6 4.6 0 0 1 1.8.5h.2a3 3 0 0 1 2.7-1.7 2 2 0 0 1 2 1c.7 1.3-.3 2.4-.7 3a1.2 1.2 0 0 0-.4 1c.2.5 1 1.2 2.5 1.6 1.4.3 2.7.7 2.6 2a1.4 1.4 0 0 1-.6 1.2 1.3 1.3 0 0 1 .8 1.4c0 .5 0 1-2 3l.5-.6c.7-.5 2.7-2 4.3-2a2 2 0 0 1 1.8 1.2c.4 1 0 2.2-1 3.6-1 1.6-3.3 3.8-5.2 4.2a3 3 0 0 1-.4 2.3 2.2 2.2 0 0 1-1.5 1 2.3 2.3 0 0 0-.2 1l3-1.6a49.2 49.2 0 0 0 7-4 4.8 4.8 0 0 1 3-1.6 2.8 2.8 0 0 1 2.3 1.3v.2a2.5 2.5 0 0 1 .3 2 4 4 0 0 1-3 2.2 4.3 4.3 0 0 0-2.2 2c-.4 1.4-1.5 2.8-3 2.8a2 2 0 0 1-.3 0 12.8 12.8 0 0 0-1.5 5.2 9.8 9.8 0 0 1-1.7 4c1.3-.6 4-1.8 5.3-1.8a17.5 17.5 0 0 0 4.7-3c2.5-2 3.3-2.7 4.3-2.7 2 0 2 2.3 2 3.2a5 5 0 0 1-3.6 4.6 2 2 0 0 0-1 .7 2.7 2.7 0 0 1-.8 2 3.2 3.2 0 0 1-2.4 1 2.4 2.4 0 0 0-.8 1l3-1.3a13 13 0 0 1 4.6-1.4 2 2 0 0 1 1.4.6 1.7 1.7 0 0 1-.3 2.8 3 3 0 0 1 .3 2c-.6 2.2-3.3 3.7-6.3 3.7a12.2 12.2 0 0 0-1.5 0 16.3 16.3 0 0 0 .3 2.5 12.8 12.8 0 0 1 .3 3.4 30.2 30.2 0 0 0 3.7-1.5c2.7-1.2 3.6-1.6 4.4-1.6a1.7 1.7 0 0 1 1.6 1 2.7 2.7 0 0 1-.4 2.5c-1 1.8-5.8 8.3-8.3 8.3-1.2.2-4.3 3.3-5.4 5 3 0 10.2-3.2 13.8-6.5 2.5-2.4 4-3.3 5.5-3.3a3 3 0 0 1 1.8.8c.6.5 1.6 1.5 1 2.8a2 2 0 0 1-1.3 1.2c.3 2-2 4.5-3 5.3a6.6 6.6 0 0 0-1.7 2l.2.3a6.5 6.5 0 0 1 .6.7l2.6-2.2c1.3-1 2-1.5 2.7-1.5a1.6 1.6 0 0 1 1.2.7c.6.8.2 1.7-.2 2.8a2.5 2.5 0 0 0 0 .4 1.7 1.7 0 0 1 .6.8c.2.3.7 1.4-1.3 4s-2.6 5-2 6v.3h.2c1 0 2.4 0 2.8 1.4s-1 2-2.5 3c-2.2 1-3 1-3.2 1a16.8 16.8 0 0 0-1.2 1.6 8 8 0 0 1-6.2 3.4h-.5a12.3 12.3 0 0 0 1.2.6 6.3 6.3 0 0 0 2.6.6 7 7 0 0 0 2.4-.4 7.8 7.8 0 0 1 2.8-.7 2.6 2.6 0 0 1 1.4.4 18 18 0 0 0 1.5-1.2c1.6-1.8 4.2-3.6 6-3.6a2 2 0 0 0 1-1.5c.5-2.3 1.6-3.4 3-3.4 1.8 0 3 1.8 4 3 .7 1.2 1.5 2.5 1 3.8a2 2 0 0 1-1 .8 1.8 1.8 0 0 1 .3 1c0 1.4-1.3 2-2.4 2.3a1 1 0 0 0-.8.6 5 5 0 0 1-1.7 5 4 4 0 0 0-.2.4 2.7 2.7 0 0 1 .7 3 6 6 0 0 1-2.3 3l1-.2a25.8 25.8 0 0 1 4-.3c1 0 2.3 0 2.7 1.2a1.6 1.6 0 0 1-.4 1.8c-1.4 1.3-2.8 1.7-9.2 2.8a30.4 30.4 0 0 0-3.5.7h-.4a4.2 4.2 0 0 1 1.2 2 3.5 3.5 0 0 1-1 3.5 7.6 7.6 0 0 1-4 1.8 3.8 3.8 0 0 1 .6 2.8l.3.2a3.8 3.8 0 0 1 2.2 2.2 2.3 2.3 0 0 1 0 .6c4.2-.2 14-3.6 15.4-5.5 1.2-1.4 7.5-5.4 9.2-5.4a1.6 1.6 0 0 1 1.2.6c.3.3 1.2 1.4-1 5.2a6 6 0 0 1-3 3.2 2.3 2.3 0 0 1 1 2.4c-.4 1.3-2 1.3-2.5 1.3a1.8 1.8 0 0 0-1.4 1 2 2 0 0 0-.3 2 2 2 0 0 1 0 2c-.5.7-1.7 1.2-3.2 1.2-1.2 0-1.7 1-2 2-.4 2-2.7 4.7-5 6-2 1-2.2 1.7-2.2 2a4.4 4.4 0 0 0 .4.6c3.4-1 17.7-8.8 19.3-10.5a9.5 9.5 0 0 1 6.4-3c2.2 0 3 1.4 3 2.8s-1.4 2.4-3 2.7a6.7 6.7 0 0 1 0 4 4.5 4.5 0 0 1-2.4 3.3 2.3 2.3 0 0 1-.2 1.6 2 2 0 0 1-1 1 2 2 0 0 1-.3 1 4 4 0 0 1-3.2 1.7 2.6 2.6 0 0 0-1.6 1c0 1.4-1.3 3.2-4.8 3.6a4.8 4.8 0 0 0-2.3.8c-.2 1.5-1.7 3.2-3 4.2a2.4 2.4 0 0 1 1.2 1 2 2 0 0 1 0 .3 21.5 21.5 0 0 0 5.8-3 19.3 19.3 0 0 1 4.7-2.4 23 23 0 0 0 4.3-3c2-1.5 4-2.3 5.2-2.3a2.5 2.5 0 0 1 2.2 1c.6 1 .6 2.4-.2 4.2a3.4 3.4 0 0 1-3 2.3 2.8 2.8 0 0 1-.7 0 .5.5 0 0 0 .5.3c1.8 0 2.3 1 2.5 1.6a2 2 0 0 1-1.4 2 1.2 1.2 0 0 0 0 .7 2.8 2.8 0 0 1 0 2.6 1.7 1.7 0 0 1-1.4.7 3.7 3.7 0 0 1-1.6-.5 2.6 2.6 0 0 1 0 1.6c-.6 2.2-4 4.7-6.5 4.8a3.4 3.4 0 0 1 1.3 1.5 3.4 3.4 0 0 1 0 2.7v.3a55.8 55.8 0 0 0 4-4c2.3-2 9.8-9.5 13.7-9.5a2.5 2.5 0 0 1 2.3 1.2c.7 1.3.2 3-1.4 4.5a4.4 4.4 0 0 0-1.3 3 6.8 6.8 0 0 0 1.6 5c2 2.4 2.2 4 .5 6.5a6.4 6.4 0 0 1-1 1.5 1.5 1.5 0 0 1 .4 0 1.5 1.5 0 0 1 .8 1.7l-.7 5.3c-.2 1-1 6.2-2.6 7h-.2c-1 .5-3 4.6-3 6a4 4 0 0 1 1.7 2.8c0 3.3-7 3.4-7 3.4h-.8a13 13 0 0 0 3.7.5 8.8 8.8 0 0 0 7.2-3.2c1-1.2 1.5-2 2.5-2 1.8 0 1.8 2 1.8 3.4a11 11 0 0 1-3 6.2 13.2 13.2 0 0 0-1 1.3c.4 1.4-.6 2-3.8 3.8a9.8 9.8 0 0 0-2.5 1.6 2.4 2.4 0 0 1-.2 2c-.7 1.3-2.5 1.7-3.8 1.7a5.3 5.3 0 0 1-3.3-1 1.2 1.2 0 0 0-.4-.3 4.4 4.4 0 0 0-1 1 5 5 0 0 1 1-.2 4 4 0 0 1 3 1.7 2.5 2.5 0 0 0 1.8.7h.3c1-.4 3.5-1 5.4-1.3s4.6-1 6-1.4a6.5 6.5 0 0 1 2-.3 1.8 1.8 0 0 1 1.5 1c.5 1-.2 2-2.7 5.3-1 1.3-3.6 4.4-6 4.4a2.5 2.5 0 0 1-1-.2 1 1 0 0 0-.3 0c-1.6 0-3.8 2-3.8 3.5 0 2.5-1.2 3.4-2.3 3.4a10 10 0 0 0-2.3 2c-1 1.5-3 3-4.4 3a2.2 2.2 0 0 1-1-.4 1.2 1.2 0 0 0 .3 1 2 2 0 0 1 1 2.5c-.4 1.5-2 1.7-5.4 1.7h-4.5c-3.2 0-4 .2-4.4.4a1.6 1.6 0 0 0 0 .3c0 3-2 3.2-2.5 3.2a3.7 3.7 0 0 1-1.4-.3 3 3 0 0 0-1 0 5 5 0 0 0-1.8.2 12.5 12.5 0 0 1-4.5 1l1.3.3 4.7 1.3a1.5 1.5 0 0 1-.4 3h-.2l-5.7-.7a2 2 0 0 1 .2.5c0 1.3-1 1.8-2.8 2.5a5.5 5.5 0 0 1-2 .5 5 5 0 0 1-1.8-.3c0 1.2-1.2 2-2 2.4a7 7 0 0 1-3.5.7 5.7 5.7 0 0 1-2.3-.4 7.7 7.7 0 0 0-2-.6h-.5c-.4 0-2 0-3.8-4.4l-.7-1.6v1c-.5 3.5-2.2 4.2-3.5 4.2a3.3 3.3 0 0 1-.7 0 26 26 0 0 0-4.7-1 1.3 1.3 0 0 0-.6 0c-.3.4-.3 2.7-.3 3.4 0 5 1.6 19 3 25.7.4 1.8.7 3-.2 4.2s-2.6 1.2-5.3 1.2h-5zm-30.2-37.2a28.4 28.4 0 0 0 4.8.3c1.3 0 2.8 0 4.4-.2a4 4 0 0 1 0-1.4 14.2 14.2 0 0 1-5 1 5.4 5.4 0 0 1-3.2-.8 3.8 3.8 0 0 1-1 1zm56-.7a9.5 9.5 0 0 0 1.8.5h.7-.2l-1.7-1.4a2.2 2.2 0 0 1 0 .3 2 2 0 0 1-.5.5zm-77-25.2a59.7 59.7 0 0 0 9.4.6c1 0 2 0 3-.2a5.8 5.8 0 0 1-1.4-1c-.7-.7-4-1.5-7-1.5a8 8 0 0 0-1.7.2 3 3 0 0 1-2.2 1.8zm15 .4h.2zM673.8 239a.7.7 0 0 0 .2 0 1.3 1.3 0 0 0 .5-.3zm6-1.5l.5.3a1.6 1.6 0 0 0 .3.2l-.2-.3a.5.5 0 0 0-.5-.2zm122-24a3 3 0 0 1 0 1.2 24.3 24.3 0 0 0 2.8-1.5 3.4 3.4 0 0 1-1.4.3 8 8 0 0 1-1.3 0zm4.6-5.3s-.3.4-.3 2a3.6 3.6 0 0 1-.8 2.6 40.2 40.2 0 0 0 4.3-3.4c-.3 0-.7-.3-1.3-.6a4.4 4.4 0 0 0-1.8-.6zm4.2-2.6c0 .2.3.4.5.6a9.3 9.3 0 0 1 1 1l3-3a3.2 3.2 0 0 1-.8.2 2.7 2.7 0 0 1-.8 0 2.4 2.4 0 0 1-2.3 1.2 3.8 3.8 0 0 1-.5 0zm-133.5-4l4 1.7c3.6 1.3 5.4 2 6.4 2a3.2 3.2 0 0 0 1.8-.7.5.5 0 0 0 .3-.4.5.5 0 0 0-.5-.3 1.3 1.3 0 0 0-.4 0 4 4 0 0 1-1.4.2 10 10 0 0 1-5-1.6 7 7 0 0 0-3.8-1.2 5 5 0 0 0-1.3.2zm130-2.8a11.6 11.6 0 0 0 2.7.3h.7a9.6 9.6 0 0 0 2.6-.2 6.2 6.2 0 0 0-2.2-2.3 8.6 8.6 0 0 1-3.4 2zm-123-29c-2.2 0-3 .6-3 .8 0 1.4 4 5.4 11.4 7l5 1a3 3 0 0 1-.4-.6 2.5 2.5 0 0 1-.4-1.6 5.6 5.6 0 0 1-1 0 3 3 0 0 1-2.6-1 2.5 2.5 0 0 1-1 .2 2 2 0 0 1-1.7-.8 2.3 2.3 0 0 1-.5-1 3.4 3.4 0 0 0-.7 0h-.3a7.4 7.4 0 0 1-1 0 3.4 3.4 0 0 1-2.5-1 3.3 3.3 0 0 1-.8-2.6.6.6 0 0 0 0-.4.5.5 0 0 0-.4 0zm26-24.6a.5.5 0 0 0-.3.2 1 1 0 0 0-.2 1 .6.6 0 0 0 .5.5 2.5 2.5 0 0 0 .7-.8.6.6 0 0 0 0-.5 1 1 0 0 0-.6-.5zm-4.6-5a4.3 4.3 0 0 1 1 0 3.7 3.7 0 0 1-.6-1 8 8 0 0 1-.7 1h.4zm0-12.3a.6.6 0 0 0-.5.2l-.4.5a4.2 4.2 0 0 0 1.3-.6.7.7 0 0 0-.5 0zm7.6-7c1 0 2 .3 3 .4a10.8 10.8 0 0 0 1.6 0 4 4 0 0 0 .8 0 2.4 2.4 0 0 1 .3-.7h-1a5 5 0 0 1-1.8-.2 2.2 2.2 0 0 1-1.5-1.8 2.3 2.3 0 0 0-.8 0 12.2 12.2 0 0 1-5.7-2.2 6.6 6.6 0 0 0-1.8-1 2 2 0 0 1-.5.3 21 21 0 0 0 2 1c1 .4 3.5 1.6 4 3.2a2 2 0 0 1 .2.8zm49.6-26.8c-2 .2-3.8 1.7-3.8 2.8a5 5 0 0 1 0 .6l3.8-3.3zm-18-18l-.2.3 1-.2a6 6 0 0 1-1-.5zm-37.3 8.3c-1.2 0-2.5-1-3.4-2.6-1.4-2.6-2-4-1.2-5.2a2.2 2.2 0 0 1 2-1c2.3 0 4 3.5 4.5 5 .6 2-.2 3-.8 3.3a2 2 0 0 1-1.2.5zM737 19.8a4 4 0 0 1-3-1.4c-2-2-2-3.5-1.5-4.4.3-.7 1-1.7 3-1.7s3.6 1.8 4 3.5a3 3 0 0 1-1 3.4 2.4 2.4 0 0 1-1.5.5zm0-9.4c-1.3 0-2-1.3-2.5-2.5a6 6 0 0 1 .6-5 2.4 2.4 0 0 1 2-1.3c2 0 2 2.5 2 3.8 0 3-.2 4-.8 4.4a1.7 1.7 0 0 1-1.3.6z" />
	<path class="cls-2" d="M710 148.4a3 3 0 0 0 2-1.4 2.3 2.3 0 0 0-2-3.3 2 2 0 0 0-1.4.6c-1.4 1.5-.4 4 1.4 4zM689 202.4a2.7 2.7 0 0 0-1 .2 2.4 2.4 0 0 1-.8 0 8.5 8.5 0 0 1-4.2-1.2 8.5 8.5 0 0 0-4.6-1.5 6.6 6.6 0 0 0-1.6 0c-4 1-3 2 3.7 4.7 3.7 1.4 5.6 2 7 2a4.6 4.6 0 0 0 2.5-1 1.8 1.8 0 0 0-1-3.3zM694.8 164.5a6 6 0 0 0 2.8-1c1.5-1 1.4-1.4-1-1.4-1.5 0-2.7.6-2.7 1.4a1 1 0 0 0 .8 1zM687 210.7c-.4 0-.6.4-.6 1.2a1.4 1.4 0 0 0 1.4 1.2c.7 0 1-.6.5-1.3a2 2 0 0 0-1.3-1.3zM711 132a1.2 1.2 0 0 0 1.3-1.4 1.6 1.6 0 0 0-1.5-1.2 2 2 0 0 0-1.7 1.5c-.2.6.6 1 1.7 1h.2zM797 236.4c2.2 0 5.7-.8 7-2 .6-.7.2-1-1.3-1a57.7 57.7 0 0 0-7 .7 1.6 1.6 0 0 0-1 1.6c0 .6 1 .8 2.2.8zM809.7 200.6h.7c2.4 0 4.3-.6 4.3-1.2 0-1.8-2.7-4.5-4-4.5a.7.7 0 0 0-.8.2 7 7 0 0 1-3 2c-4 1.5-2.3 3.4 2.7 3.4zM714.3 256.8c1 0 2-.6 2-1.3a1 1 0 0 0-1.2-1.2 2.4 2.4 0 0 0-1.8 1.2c-.4.7 0 1.3 1 1.3zM702.6 179.6c-1.5-1-1.5-1.3.6-1.3s2-.2.6-1.2a3 3 0 0 0-1.6-.5 2.5 2.5 0 0 0-1.7.7 2 2 0 0 1-1.3.5 1 1 0 0 1-1-.5c-.4-.6 0-1.5 1-2a3 3 0 0 0 2-2.3c0-.7 0-1-.3-1a1.3 1.3 0 0 0-.8.7 6.2 6.2 0 0 1-4.5 2.3 1.6 1.6 0 0 1-1.5-.6 1.4 1.4 0 0 0-1.2-.6 1.3 1.3 0 0 0-.7.2 1 1 0 0 1-.5 0 .7.7 0 0 1-.6-.7c0-.6-1-1-2.2-1h-.5a6.3 6.3 0 0 1-.8 0c-1.4 0-2-.6-1.8-1.8a1.8 1.8 0 0 0-2-2.2c-9.2.2-3 8.4 8 10.8a65.3 65.3 0 0 0 10.3 1.7c1.4 0 1.5-.4.3-1zM717.6 146c.8 0 1-.7.5-1.3a2 2 0 0 0-1.2-1.2c-.3 0-.5.4-.5 1.2a1.4 1.4 0 0 0 1.4 1.2zM705.5 126.4a2 2 0 0 0-1.8 1c-1.3 2-1.4 3 0 3a7.3 7.3 0 0 0 1.4-.2c1.4-.4 2.6-1.2 2.6-1.8a2 2 0 0 0-2-2zM685 248.8c0-.2-1-.7-2.4-1a4.4 4.4 0 0 0-1-.3c-.7 0-1 .3-.7.7.3.6 2 1 3 1 .7 0 1 0 1-.4zM766.5 118a24 24 0 0 0-2.8.2c-2 .2-3.5 1-3 1.6s-.7 1.2-2.3 1.6c-2 .4-2 .6-.6.8a15.4 15.4 0 0 0 6-2c3.3-1.6 4.2-2.3 2.7-2.3zM768 138.3c.3 0 .6-.3.6-1a1.3 1.3 0 0 0-1.4-1.3c-.8 0-1 .5-.5 1.2a2 2 0 0 0 1.3 1zM746.7 106c-1.2 0-1.7.7-1.2 1.3a1.6 1.6 0 0 0 1.4.6 1.6 1.6 0 0 0 1.7-1.4c0-.3-1-.5-2-.5zM732.5 88c0-.6-.6-1-2-1a11.6 11.6 0 0 0-2 .2c-4 .6-4 .6-1 1.4a20.2 20.2 0 0 0 4 1c1 0 1-.5 1-1.5zM733.2 252.5c-2 1-2.5 1.8-.7 1.8a2.7 2.7 0 0 0 1.8-1.3c.4-.4.2-.7-.2-.7a2.7 2.7 0 0 0-.8.2zM786.6 245.6c-.3 0-.6.4-.6 1.2a1.4 1.4 0 0 0 1.4 1.3c.8 0 1-.6.5-1.2a2 2 0 0 0-1.4-1.2z" />
	<path class="cls-2" d="M824.3 244a3.2 3.2 0 0 0-3-2 7.7 7.7 0 0 0-2.2.5l-5.8 1.4-2 .3a4 4 0 0 0 .5-.6 4 4 0 0 0 .5-2 11 11 0 0 1 1.5-1c2.8-1.3 5-2.5 4.8-4.6.2 0 .3-.3.6-.6 1.7-1.8 3.4-4.8 3.4-7.2a14.8 14.8 0 0 0 0-1.8 3.2 3.2 0 0 0-3.3-3c-1.7 0-2.6 1.2-3.5 2.5a4.8 4.8 0 0 1-.5.4v-.4a5 5 0 0 0-1.5-3.3 11 11 0 0 1 2-4c1.7-1 3-3.6 3.4-8.2l.7-5.3a3 3 0 0 0-.6-2.3l.4-.5c2-3.2 2-5.4-.7-8.3a5.4 5.4 0 0 1-1-3.8 3 3 0 0 1 .6-2c2.2-2 3-4.5 1.7-6.4a4 4 0 0 0-3.5-2c-2.2 0-5 1.7-7.8 4a4 4 0 0 0-.2-2.5 3.2 3.2 0 0 0 .6-4.4 5.3 5.3 0 0 0 1.4-2c1-2 1-4 0-5.4a4 4 0 0 0-3.4-1.7c-1.7 0-3.7.8-6 2.5h-.2a24 24 0 0 1-3.8 2.8 17.7 17.7 0 0 0-5 2.6 20 20 0 0 1-3.2 1.7 7.3 7.3 0 0 0 1.2-2.3 4.8 4.8 0 0 1 1-.3c4-.3 5.7-2.4 6-4.2a1.8 1.8 0 0 1 .5-.2 5.3 5.3 0 0 0 4.4-2.5 3.6 3.6 0 0 0 .2-.7 3.6 3.6 0 0 0 1-1 3.7 3.7 0 0 0 .4-1.7 6.6 6.6 0 0 0 2.3-3.5 9 9 0 0 0 0-3.4 4 4 0 0 0 3-3.8 4.3 4.3 0 0 0-4.6-4.2 11 11 0 0 0-7.5 3.5c-1.2 1-6.8 4.4-11.8 7a9 9 0 0 0 2-3.6 1.6 1.6 0 0 1 .3-.8c2 0 3.7-.8 4.5-2.2a3.5 3.5 0 0 0 0-3.3 1.4 1.4 0 0 1 .4-.6c2 0 3.3-1 3.8-2.3a3 3 0 0 0-.2-2.5 9 9 0 0 0 2.3-3c2.2-4 1.5-6 .6-6.8a3 3 0 0 0-2.4-1c-2.5 0-9 4.6-10.3 6s-9 4.2-13.2 4.8a5.2 5.2 0 0 0-2-2.2 5 5 0 0 0 0-1 8.2 8.2 0 0 0 2.8-1.7 5 5 0 0 0 1.5-4.8 5 5 0 0 0-.2-.7c.5 0 1 0 1.6-.2 6.4-1 8.3-1.5 10-3.2a3 3 0 0 0 .7-3.4c-1-2.2-3.3-2.2-4.3-2.2h-1.3a5.5 5.5 0 0 0 .2-.7 4.4 4.4 0 0 0-.3-3.2 6.8 6.8 0 0 0 1.8-5c1.2-.4 2.8-1.2 3-3.2a3.4 3.4 0 0 0 0-.8 3.5 3.5 0 0 0 .4-.6c1-2-.3-4-1-5.2-1-1.5-2.8-3.7-5.3-3.7-1.2 0-3.5.6-4.6 4.6a1.2 1.2 0 0 1 0 .4c-2.5.3-5.2 2.6-6.5 4l-.7.5a4.7 4.7 0 0 0-1-.2 8.5 8.5 0 0 0-3 .5 9.2 9.2 0 0 0 1.7-1.7l.7-1a10.8 10.8 0 0 0 3.2-1.2c1.6-1 4-2 3.2-4.7a3.3 3.3 0 0 0-3.2-2.4 7.6 7.6 0 0 1 2-4c1.6-2 2-4 1.4-5.5a3.3 3.3 0 0 0-.3-.6 3.8 3.8 0 0 0-.2-3.6 3 3 0 0 0-2.6-1.4 3.3 3.3 0 0 0-.7 0 6.3 6.3 0 0 0 .8-2 3.2 3.2 0 0 0 1.3-1.6c.7-1.4.3-3-1.2-4.4a4.4 4.4 0 0 0-3-1.2c-2 0-4 1.5-6.5 3.6a29 29 0 0 1-8 5 5.5 5.5 0 0 1 1-1c4-.4 9-9 9-9 .6-.7 1.6-2.4.6-4a3.2 3.2 0 0 0-3-1.7c-1 0-2.3.4-5 1.7l-1.6.7c0-.5 0-1-.2-1.5v-.8c3.5 0 6.7-2 7.5-4.7a4.5 4.5 0 0 0 0-2 3.3 3.3 0 0 0 .5-.8 3.2 3.2 0 0 0-.7-3.6 3.5 3.5 0 0 0-2.6-1h-.2a6.6 6.6 0 0 0 2.7-5c0-4-2.2-4.7-3.5-4.7-1.6 0-2.6 1-5.3 3a18.4 18.4 0 0 1-4 2.7 9.3 9.3 0 0 0-2 .4 8.6 8.6 0 0 0 .3-.8 14.4 14.4 0 0 1 1-4c1.7-.2 3.2-1.6 4-3.8a3 3 0 0 1 1.2-1 5.3 5.3 0 0 0 3.8-3 4 4 0 0 0-.2-3.6 3 3 0 0 0-.2-.3 4.2 4.2 0 0 0-3.5-2 6 6 0 0 0-3.8 1.7 22.7 22.7 0 0 1-2.7 1.8 16 16 0 0 0 2.2-2.4c1.3-1.7 1.7-3.4 1.2-4.8V32a3.4 3.4 0 0 0-3.4-2 5 5 0 0 0-1.4.2 2.7 2.7 0 0 0-.3-.7 3.5 3.5 0 0 0 0-.8c.4-2.7-2.3-3.4-3.6-3.7a4.4 4.4 0 0 1-1-.5c.5-.7 1.6-2.4.7-4.3a3.4 3.4 0 0 0-.5-1 4.8 4.8 0 0 0 .5-3.7 6.7 6.7 0 0 0-3-4 3.3 3.3 0 0 0 1.3-.7c1-1 1.2-2.4 1.2-5.5 0-1.4 0-5.3-3.5-5.3a3.8 3.8 0 0 0-3.2 2.2 7.4 7.4 0 0 0-.7 6.2 7.2 7.2 0 0 0 1.6 2.5 4.2 4.2 0 0 0-3.5 2.4c-.4 1.3-.5 3.3 2 6l.2.2a3.2 3.2 0 0 0-3 1.7c-1 2 .2 3.7 2 6l.6 1a3 3 0 0 0-1.3 1.5 3.2 3.2 0 0 0-.2 1.3 3 3 0 0 0-.2.4c-.7 1.7.2 3.2 1 4.3a3.3 3.3 0 0 0-2.5 3h-.5a6.5 6.5 0 0 0-2 .3 14.2 14.2 0 0 1-2.2.5 4 4 0 0 0-4 4.2c0 1.3 1 3.6 4.5 3.6a10 10 0 0 0 2 0 5 5 0 0 0-2 2c-1 2.4-.4 5.6 1.3 8.3a4 4 0 0 0-.8 1.4h-1.1a7.5 7.5 0 0 0-3-3.7 6 6 0 0 0-3.3-1.3 3.2 3.2 0 0 0-2.7 1.3c-1 1.6-.5 3.3.5 6a16.4 16.4 0 0 0 3.8 6.3 3.8 3.8 0 0 0 0 2 4.3 4.3 0 0 0 .2.6 7.5 7.5 0 0 0-3.4-1 3.3 3.3 0 0 0-2.7 1.3 4.4 4.4 0 0 0-.2 4 6 6 0 0 0 4 4.3 5 5 0 0 0 1.7 4 13 13 0 0 0-.7 2.4h-.7a15 15 0 0 1-1.5-.2 8.3 8.3 0 0 0-2.7-2.5 6.4 6.4 0 0 0-3-1.2 7.2 7.2 0 0 0 0-1c-.5-1.4-2.6-6-6-6a3.7 3.7 0 0 0-3.3 1.7c-1.2 2-.2 4 1 6.5 1.2 2.2 3 3.5 4.7 3.5h.2v1a2 2 0 0 1-.3 1.5 5 5 0 0 1-3 1.7c-2.2.3-6 .8-5.7 4s4 3.3 6.7 3.3H707.4l-4.8 2a6.3 6.3 0 0 0-4 3.6 3.8 3.8 0 0 0 .5 3.4h.2a4.3 4.3 0 0 0 3 2 3.8 3.8 0 0 0-.5 1.7v1.3l-2.4-2c-4.4-3.8-5-4-6-4a3 3 0 0 0-3 1.8 3.2 3.2 0 0 0 .6 3.5 4 4 0 0 1 .3.8 3.7 3.7 0 0 0 0 3 3.6 3.6 0 0 0 1.3 1.5v.2c-.4 1.5-.6 3.6.7 5.2a4 4 0 0 0 .7.8 3.8 3.8 0 0 0-2.5 1.2c-1.3 1.5-1 3.4-.8 4.7.4 3 2.4 5 5 5a6.3 6.3 0 0 1 .8 1.7c1 2.5 1.8 4.7 4 5a3 3 0 0 0 0 .3l-.5.4a6 6 0 0 1-1 .6 10.5 10.5 0 0 1-2.6-1.3 12.8 12.8 0 0 0-6.2-2.2 4.6 4.6 0 0 0-4.8 5 4 4 0 0 0 3 3.7 3.3 3.3 0 0 0 .2.7 3.3 3.3 0 0 0 2.4 1.7 6 6 0 0 0 1.6 3c-4.5-2.6-6.2-2.6-6.8-2.6a3.6 3.6 0 0 0-3 1.7h-.2c-1.5 2.6-1 6.2.5 8.6a8.3 8.3 0 0 0 1.2 1.6 2.8 2.8 0 0 0-.2 1 16.6 16.6 0 0 0-7.8 2 6.7 6.7 0 0 1-1.2.7 3.3 3.3 0 0 0-1.3-.2c-1.3 0-3.5 1-3.5 4.3a6.3 6.3 0 0 0 0 1.2 5 5 0 0 0-2.5 4.3 4.8 4.8 0 0 0 .6 2.4h-.3a3.7 3.7 0 0 0-3.8 3.8c0 .5 0 1.8 2 3.7a7 7 0 0 0-.3 1.6 5 5 0 0 0 .8 4 3.2 3.2 0 0 0 1.6 1 3.4 3.4 0 0 0 .3 1 3.7 3.7 0 0 0 3.4 2 4.2 4.2 0 0 0 .7.8 6 6 0 0 0-1.2 1.8 2.3 2.3 0 0 1-.8 0 2 2 0 0 1-.4 0c-1.4-2-3-2.3-4-2.3a3.6 3.6 0 0 0-2.7 1.4c-1 1.2-1.3 3-.8 5.4.7 4.4 3 5.3 5 5.3a5.8 5.8 0 0 0 1 0c1.3 3.7 3.3 6 5.7 6.7a3.4 3.4 0 0 0 3.2 2.2 5.6 5.6 0 0 0 2-.5 5.5 5.5 0 0 1 1.8 1.4 14.6 14.6 0 0 0 2 1.7h-.2a8 8 0 0 1-2.2-.3 6.2 6.2 0 0 0-3-1.7c-.5 0-1.4-.4-2.2-.7a38.4 38.4 0 0 0-10-2c-4 0-4 3-4 3.3 0 1 .2 2 3.5 5l-1.5.4a3 3 0 0 0-.4 5.7l2 .8a4 4 0 0 0-2.2 3.5 4 4 0 0 0 1 2.8c-1 2.2 0 4.6.8 6.4a7.6 7.6 0 0 1 .8 2 3.3 3.3 0 0 0 .7 2.5 4 4 0 0 0 3.3 1.4 7.4 7.4 0 0 0 1.7-.3 4 4 0 0 0 2 1.3 4.2 4.2 0 0 0 .5 1 3.3 3.3 0 0 1-.8.2c-1.8 0-4.6-1-7.5-4.2-2.5-2.7-4.7-4-6.7-4a4 4 0 0 0-3.2 1.5c-1 1.4-1.4 3.4-1 6.2a16.2 16.2 0 0 0 3 6.2c-1.6 1-3.4 2.4-2.7 4.7 1 2.6 3.3 2.7 8.5 3a2 2 0 0 1 1.8 1v.2a10.2 10.2 0 0 0 2.5 3 4 4 0 0 0-2.2 1.7 3.3 3.3 0 0 0 0 3.4c2 3.3 10 3.5 10 3.5a9.8 9.8 0 0 0 1.4 0 4 4 0 0 0 3 1.3 7.5 7.5 0 0 0 3.7-1.2 6.4 6.4 0 0 1 4-.3 30 30 0 0 0 4.4.7 6.7 6.7 0 0 0-.5.6 3 3 0 0 1-1.6.7 5.8 5.8 0 0 0-4.4 1.7 6 6 0 0 0-1.4 0 4.7 4.7 0 0 0-3.3 1 3.2 3.2 0 0 0-.8 3.6c1 2.2 3.6 2.2 4.4 2.2a5.7 5.7 0 0 0 2.7-.5 6.3 6.3 0 0 0 2 .3 10 10 0 0 0 1.8-.2h.5a4.3 4.3 0 0 0 3.5 1.7 3.7 3.7 0 0 0 3-1.5 8 8 0 0 0 .7.5 3 3 0 0 0 3.3 3.4h.6a3.3 3.3 0 0 0 .4 1 3.3 3.3 0 0 0 2.7 1.3 4.4 4.4 0 0 0 2.4-.8l.5-.3a4.4 4.4 0 0 0 4.2 2.8 6.2 6.2 0 0 0 5.6-4.4 4.3 4.3 0 0 1 1 0h1.7c2.5 0 4-.5 4.8-1.3a13.4 13.4 0 0 1 1.4 0 28 28 0 0 0 6.2-.8c0 1 .3 2.8.5 4.3a120.8 120.8 0 0 1 .3 16.3l-.7 8.2a3 3 0 0 0 3 3.2h4.8c2.8 0 5 0 6.4-1.7s1-3.6.7-5.3c-1.4-6.6-3.2-20.6-3.2-25.5v-1.8c1 0 2.4.4 3.8.7a4.8 4.8 0 0 0 1 0 4.4 4.4 0 0 0 4-2.3c2 3.3 3.5 3.3 4 3.3h.5a7.8 7.8 0 0 1 1.5.5 7.2 7.2 0 0 0 3 .5 8.4 8.4 0 0 0 4-1 6 6 0 0 0 2.3-2 6.4 6.4 0 0 0 .7 0 7 7 0 0 0 2.6-.5c1.5-.6 3-1.3 3.6-2.7l4 .5h.3a3 3 0 0 0 .8-6h-.2.4a2.4 2.4 0 0 1 .4 0 5 5 0 0 0 2 .4 4 4 0 0 0 4-3.8h7.3c3.3 0 6.2 0 7-2.7a3.2 3.2 0 0 0 0-2.5 10.7 10.7 0 0 0 3.8-3 10.6 10.6 0 0 1 1.6-1.6c1.4-.2 3.4-1.3 3.4-4.8a3.4 3.4 0 0 1 2.2-2 4 4 0 0 0 1.3.2c3 0 5.8-3 7.2-5 2.7-3.4 3.8-5 2.8-7zm-139.7 38.8c-1.2 0-2-.2-1.6-.6a1.8 1.8 0 0 1 1.2-.4 3 3 0 0 1 1.2.3c1 .4.7.8-.8.8zm51-250.7c-1.6-1.2-2-1.6.4-1.6h1.8a20.6 20.6 0 0 1 4.5.5c0 .4-5 5.2-5.5 5.2a15.5 15.5 0 0 1-2-2c-1-1.2-1.2-1.7-.8-1.7a6.3 6.3 0 0 1 1.6.4 8.7 8.7 0 0 0 1.7.5c.3 0-.2-.4-1.6-1.4zm.7-28.3a1.2 1.2 0 0 1 .7-.7c.3 0 .5.7.5 2.3 0 2.3-.2 3.5-.6 3.5s-.7-.6-1.2-1.6a4.4 4.4 0 0 1 .5-3.5zm-.8 10c2 0 3.6 3.4 2 4.3a.8.8 0 0 1-.5.2 2.6 2.6 0 0 1-1.8-1c-2-2-2-3.4.3-3.4zm-2.4 8.8a3.8 3.8 0 0 1 1.2.4 3 3 0 0 0 1 0 .8.8 0 0 0 1-.5 1.4 1.4 0 0 1 1.5-1.2c1 0 1 .5 0 1.6-1.5 2-.2 4 3 5 2 .4 2 .5-.6.6h-.2c-2 0-3.8-1-5.3-3.2s-2-3-1.4-3zM727 44a7.4 7.4 0 0 1-1.7.2c-1 0-1.5-.3-1.5-.7a1 1 0 0 1 1-1 13.6 13.6 0 0 0 3.2-1 3.5 3.5 0 0 1 1 0 .8.8 0 0 1 1 .6c0 .8-1.4 1.7-3 2zm3 2v.2h-.2zm-22.7 37c-.7 0-1.5-.8-2-2-1.6-2.8-1.7-3.8-.5-3.8 1.6 0 4 5 3 5.6a.6.6 0 0 1-.5.2zm112 166c-2 2.4-3.8 3.8-5 3.8a1 1 0 0 1-.3 0 2.6 2.6 0 0 0-1-.2c-2.2 0-5.2 2.6-5.2 5 0 1-.3 2-.8 2h-.2c-.5 0-2 1-3.2 2.5-1.2 1.4-2.5 2.3-3.3 2.3a.7.7 0 0 1-.5 0 1.7 1.7 0 0 0-.8-.3c-1.5 0-2 2.6-.2 4 1.2 1 .4 1-3.6 1h-4.4c-5 0-6 .6-6 2.3q0 1.7-1 1.7a2.3 2.3 0 0 1-1-.2 4.4 4.4 0 0 0-1.4-.2 6.6 6.6 0 0 0-2.5.4 11 11 0 0 1-4 .7 6.7 6.7 0 0 1-1 0 9.7 9.7 0 0 0-1 0c-3.3 0-1.8 2 2.8 3.4l4.8 1.5-6-.6a27.8 27.8 0 0 0-3-.3c-1.8 0-3 .3-3 .8s1.2 1.3 2.7 1.4c2.6 0 2.8 0 .3 1a4 4 0 0 1-1.6.3c-1.2 0-2.5-.7-4.2-2.3-2-2-3.7-3-4.4-3-.4 0-.4.4.2 1.2.4.6 0 1.3-.5 1.3-3 0-1 2.2 2.8 3 3.5.7 3.8 1 1.8 2a5.5 5.5 0 0 1-2.7.8 4.2 4.2 0 0 1-1.8-.3 8.4 8.4 0 0 0-2.7-.8h-.3c-.5 0-1.6-1.6-2.5-3.5-1-2.3-1.8-3.5-2.4-3.5s-1 1-1.3 3.3q-.3 3-2 3a1.8 1.8 0 0 1-.2 0 26 26 0 0 0-5-1c-2.3 0-2.5 1.4-2.5 5 0 5 1.7 19 3.2 26 .7 3.2.5 3.4-4 3.4h-5l.8-8.3a124.4 124.4 0 0 0-.3-16.8c-.7-6-1-7.6-2.2-7.6a4.8 4.8 0 0 0-1.4.3 23.3 23.3 0 0 1-6 .8c-2 0-3.6.3-3.6.8s-1 .6-2.7.6h-1.6c-2.2 0-3.2.5-3.8 2a3.2 3.2 0 0 1-2.8 2.4 1.5 1.5 0 0 1-1.5-1.7 1.4 1.4 0 0 0-1.5-1.5 6.4 6.4 0 0 0-3 1 1.8 1.8 0 0 1-1 .5c-.3 0-.3-.4 0-1.2.3-1 .2-1.5-.8-1.5a7.3 7.3 0 0 0-1.5.2 11.5 11.5 0 0 1-1.4.2c-.3 0-.3 0 .2-.4 1.7-1 2-2.5.7-2.5a2.4 2.4 0 0 0-1 .2 1.3 1.3 0 0 1-.4 0c-1 0-2.3-.8-3.3-2.2l-2-3v3c0 1.4-.6 2.6-1.2 2.6a1 1 0 0 1-1.2-1c0-.4-.6-.6-1.6-.6a11 11 0 0 0-1.5 0 7 7 0 0 1-1.4.2c-1 0-1.7-.3-1.7-1 0-.6 1-1.2 2.3-1.2a5.8 5.8 0 0 0 3.8-1.8 11.6 11.6 0 0 1 5-2.6c6-1.2 5.4-2.6-1-2.7a46.7 46.7 0 0 1-9.3-1 8.5 8.5 0 0 0-2.2 0 8.4 8.4 0 0 0-4 .7 5.2 5.2 0 0 1-2.2 1 1 1 0 0 1-1-1 1.2 1.2 0 0 0-1-1 1 1 0 0 0-.5.3 3.7 3.7 0 0 1-1.8.3c-3 0-8-1.3-7.5-2.3.3-.4 1.2-.6 2.4-.6a13.5 13.5 0 0 1 2.3.2 13.8 13.8 0 0 0 2 .2c1.8 0 2.4-.8 3.2-3.3 1.3-3.2 1-3.7-1-3.8h-.6c-1.3 0-1.4.4-.4 1.5s1 2-1 2.5a3.4 3.4 0 0 1-1 .3 1.3 1.3 0 0 1-1.5-.8 2.2 2.2 0 0 0-1.8-1.4c-1 0-2-1.2-3-2.7a5 5 0 0 0-4.2-3c-6.6-.2-7-.4-4-2.5 2.4-1.6 2.6-2 .8-3.4-1-.7-2.2-3.2-2.7-5.5-.7-2.5-.2-4 1-4 1 0 2.6 1 4.5 3 3 3.4 6.7 5.3 9.7 5.3a5.7 5.7 0 0 0 2.8-.7c2.7-1.5 3.4-3.7 1.3-3.7a1.2 1.2 0 0 1-1-1.6 1 1 0 0 0-1-1.3h-.5a1 1 0 0 1-1-.8c0-.4-.6-.6-1.4-.6a4.7 4.7 0 0 0-1.2 0 4.7 4.7 0 0 1-1 .3c-.8 0-1.2-.3-1-.6a7.8 7.8 0 0 0-1.4-4c-2-3.6-1-5 4.2-6 3-.4 4-1 3.3-2a2 2 0 0 0-1.4-.4 5 5 0 0 0-2.3.6 8.7 8.7 0 0 1-3.8 1.4 1.2 1.2 0 0 1-1.4-1.2c0-.8 1.2-1.3 2.5-1.3 4 0 4-2.5 0-4.2l-4-1.6 3.6-1 3.7-.8-3.5-3c-2-1.7-3.5-3.3-3.5-3.7 0-.2.4-.2 1-.2a35.6 35.6 0 0 1 9 1.8l2.7 1a3.2 3.2 0 0 1 1.7 1c.8.5 2.4.8 4.3.8 4 0 8.8-1.2 8.8-2.7 0-.7-1.2-1.2-2.6-1.2s-4.2-1.4-5.8-3c-1.4-1.5-3-2.4-4-2.4a2 2 0 0 0-.8.2 3.4 3.4 0 0 1-1 .2c-.7 0-.7-.5 0-2 .3-1 .5-1.5.2-1.5a2.5 2.5 0 0 0-1 .8 2 2 0 0 1-1.4.7c-1.4 0-3-1.7-4-5-.3-1.3-1-2-2.2-2a3.3 3.3 0 0 0-.8 0 3.4 3.4 0 0 1-1 .3c-1 0-1.6-1-2-2.8s0-3.2.7-3.2a2.2 2.2 0 0 1 1.5 1.2 3.2 3.2 0 0 0 2.8 1.2c1.5 0 3-.6 3.5-1.8a3 3 0 0 1 2.6-2 1.6 1.6 0 0 0 1.8-1c0-1-1-1.4-2-1.4a1.7 1.7 0 0 1-1.8-1.2c0-.8-.8-1.3-2-1.3-1.5 0-1.7-.3-.6-1.6 1.2-1.4 1-2.6-.2-2.6a2.7 2.7 0 0 0-1.7.7 2 2 0 0 1-1 .7c-.2 0-.3-.5-.2-1.7s.6-2 1-2a.8.8 0 0 1 .5 0 1 1 0 0 0 .3.2c.2 0-.2-.5-1.2-1.2-1.2-1-2.2-2.2-2.2-2.7a.7.7 0 0 1 .8-.8c1.2 0 3.7 1.3 7.3 3.8a45.2 45.2 0 0 0 6 3.8c2 0 .4-3.5-3-7-2.7-2.8-3.3-4-2.3-4.6.5-.2.5-.3 0-.3a12.3 12.3 0 0 0-2 .4 10.8 10.8 0 0 1-1.8.2 1.3 1.3 0 0 1-1.6-1.5c0-1 1-2 2.8-2s2-.4 1.2-.8a3 3 0 0 1-1.5-2.6c0-.8.3-1.3.6-1.3a.5.5 0 0 1 .4.2.8.8 0 0 0 .6.2 6.5 6.5 0 0 0 3-1.3 14.7 14.7 0 0 1 7.4-1.6H687.4c2.4 0 3.8-.5 4-1.3s.3-1.4-.2-1.4h-.2a7.2 7.2 0 0 1-1.2.2 13 13 0 0 1-1.6 0c-1.6-.2-1.6-.3 0-1.5s1.6-1.2-.3-1.2c-2.3 0-4.3-5-3-7.4a.7.7 0 0 1 .7 0c1 0 3.5 1 6.5 2.8 3.3 2 5 3 6 3a1.6 1.6 0 0 0 1.4-1c1.2-1.8 1.4-3.2.8-3.2a2 2 0 0 0-1 .7 5.2 5.2 0 0 1-3.4 1.5c-1.3 0-1.5-.4-.2-2s1-2-.6-4c-1.4-1.2-1.7-2.2-.8-2.5a2 2 0 0 0 1.4-1.7c0-.4-.5-.7-1.2-.7a4.7 4.7 0 0 0-1.4.2 5 5 0 0 1-1.5.3c-.6 0-.7-.3-.3-.8.5-.7 0-1.4-1-1.4s-2-.5-2-1a1.6 1.6 0 0 1 1.7-2 10.3 10.3 0 0 1 4.8 1.8c2 1.3 3 2 4 2a5.2 5.2 0 0 0 2.8-1.3 7.5 7.5 0 0 1 3.8-1.2 2.4 2.4 0 0 1 .8 0 2.7 2.7 0 0 0 1 .3 2 2 0 0 0 1.7-.8c.4-.8 0-1.4-.6-1.4s-1.4-1-1.4-2.2c0-1 0-1.5-.3-1.5s-.7.5-1.6 1.6-1.2 1.6-1.4 1.6c-.5 0 0-1.4 1.2-3.8.7-1.5 1-2 .8-2a10.3 10.3 0 0 0-2 1.6c-1.3 1-2 1.6-2.5 1.6s-1-1-1.7-3-2-3.7-3-3.7h-.3a1.4 1.4 0 0 1-.3 0c-1 0-1.8-1-2-2.6-.3-2-.2-2.6 1-2.6a9 9 0 0 1 1.7.3 12 12 0 0 0 3 .5c2.6 0 4-1.2 2.7-3a4 4 0 0 1-.5-3.5c.3-.8.4-1.3 0-1.3a4.5 4.5 0 0 0-1.6.7 8 8 0 0 1-3.5 1.2c-1.2 0-1.5-1-1-3s.3-3.2-.6-3.2a.7.7 0 0 1-.7-1.2c.5-.8 0-2.3-1-3.5v-.4c.2 0 1.8 1.2 4 3.2a53 53 0 0 0 9.7 6.8c2.2.8 3.7 2 3.4 2.7s-.3 1 .3 1.3 3 .3 5 .6a12 12 0 0 0 2 0c1.3 0 2-.4 2-1a1 1 0 0 1 1-1 1.7 1.7 0 0 1 .8.3 5.4 5.4 0 0 0 1 .4c.2 0 .3-.3.4-1a5.4 5.4 0 0 1 0-1 .4.4 0 0 1-.4.2 1 1 0 0 1-.5-.2 5.4 5.4 0 0 0-2.6-.5h-1.6c-1 0-1.8-.2-1.8-1s-1-1.2-2.2-1.2a10.8 10.8 0 0 1-5-1.7 6.2 6.2 0 0 0-2.8-1.2.6.6 0 0 0-.5.3.3.3 0 0 1-.3 0c-.2 0-.5-.4-.5-1.2v-3c0-.7 1-1 2.6-1a26 26 0 0 1 11 3l5 .8v-1.3c0-2.2-.6-3.6-2.4-4-2.6-.6-3.6-2.8-1.3-2.8.7 0 .7-1 0-2.3-1-1-2.7-1.7-4.3-1.7s-3 .6-2.8 2c0 .6-1.3 1.6-3 2a8.2 8.2 0 0 1-2.3.5c-.8 0-1.3-.3-1.3-.8s0-.6-.4-.6a2.8 2.8 0 0 0-1.3.8 2.8 2.8 0 0 1-1.6.7 1.3 1.3 0 0 1-1-.6c-.5-.8.5-2 2-2.5 11.3-4.5 13.6-5.7 14.2-7.4 0-.7.2-1 0-1a3.2 3.2 0 0 0-1 .7 3.6 3.6 0 0 1-2 .8.7.7 0 0 1-.7-.2c-.4-.3-2.7-.6-5.4-.6h-4c-4.5 0-5-.7-.5-1.4 4-.6 6.6-3.3 6-6.6-.2-1.6-.2-2.2.2-2.2a4.2 4.2 0 0 1 1.6.7c1.3.7 2.2 1.7 2 2s1.4 1 3.8 1h1.2c1.7 0 2.8-.2 2.6-.7-.4-.6 0-2.5 1-4.2 1-2 1.3-2.7.7-2.7a3 3 0 0 0-.8 0 1.6 1.6 0 0 1-.6.3c-.7 0-1-.8-1-2s-.8-2.8-1.8-2.8a3 3 0 0 1-2.4-2.2c-.3-1-.4-1.6 0-1.6s1.8.6 4 1.8c2.7 1.4 4.6 3 4.5 3.3s1.5.8 4 1l2.2.2c1.7 0 1.5-.4.2-1.7a7 7 0 0 1-2-3c0-.4-1.8-1.5-3.8-2.4s-3.4-2-3-3 0-2-.8-2.6-2.4-3-3-5.4-1.3-3.3-.8-3.3a4.8 4.8 0 0 1 1.7.8c1.3 1 2.2 2 2 2.8s1 1.4 3 1.6h.7c2 0 3-.6 3-1.7a1 1 0 0 1 1-1.2 3 3 0 0 1 1 .4 3.8 3.8 0 0 0 1 .2c.5 0 0-.6-1.5-2.2-3-3.3-3.2-8-.4-8h.5A3 3 0 0 0 733 47c.3-1 1-1.8 1.6-1.8a.6.6 0 0 1 .3 0 1.2 1.2 0 0 0 .5.2 1.3 1.3 0 0 0 1-.6c.5-.6-.3-1.5-1.6-2a3.6 3.6 0 0 1-2.6-3c0-.8 0-1.2.4-1.2a2 2 0 0 1 1 .8 4 4 0 0 0 2.5 1.4c.6 0 1-.6 1-1.8a1.7 1.7 0 0 1 1.4-1.8c.8 0 3-1.2 4.6-2.7a6.7 6.7 0 0 1 3.3-1.5.5.5 0 0 1 .4.2c.6 1.6-3.7 6-5.5 6a.8.8 0 0 1-.4-.2.7.7 0 0 0-.3-.2c-.3 0-.4.6 0 1.4.2 1 0 2-.8 2s-1.4 1-1.4 2.5 0 2 .6 2 2-.8 4.6-2a50 50 0 0 0 7.4-4.6 3.5 3.5 0 0 1 2-1 1.3 1.3 0 0 1 1 .7c.4 1-.3 1.8-1.8 2.2a5.7 5.7 0 0 0-3.4 3c-.3 1-1 1.7-1.4 1.7a.4.4 0 0 1-.3 0 .6.6 0 0 0-.3-.2c-1 0-2.5 3-3 6.7a8.2 8.2 0 0 1-2.6 4.6c-2 1.5-2 2.4-1 2.4A9.4 9.4 0 0 0 744 59a17.4 17.4 0 0 1 5.2-2c.8 0 3.3-1.5 5.4-3.2 2-1.7 3-2.4 3.4-2.4s.5.5.5 1.6a3.6 3.6 0 0 1-2.5 3.3c-1.4.3-2.4 1.3-2.2 2.2s-.5 1.5-1.6 1.5c-2 0-3.5 4.4-1.7 4.4a19 19 0 0 0 4.6-2 11.5 11.5 0 0 1 4-1.3.6.6 0 0 1 .4.2c.4.4 0 .7-1 .7-1.4 0-1.5 0-.4 1 2.4 1.3-.2 4.2-4 4.2-3 0-3.3.3-2.7 4.2.6 3.8.4 4.3-2 4.3a6.8 6.8 0 0 1-4.3-1.4 1.4 1.4 0 0 0-1-.5c-.3 0-.7.7-1 2-.4 1.6-.4 2.2 1 2.2a28.6 28.6 0 0 0 3.5-.4 43.2 43.2 0 0 0 9.8-3.2A13.6 13.6 0 0 1 761 73c.4 0 .3.3-.2 1.2-2 3.3-5.8 7.6-7 7.6-2 0-8 6.5-7 7.6a2 2 0 0 0 1.5.4c3.5 0 11-3.4 15-7 2.2-2 3.6-2.8 4.5-2.8a1.4 1.4 0 0 1 1 .4c1 1 1 1.4-.2 1.4a.8.8 0 0 0-.8 1.4c.5.7-.6 2.6-2.3 4.2-2.4 2.2-2.8 3.2-1.6 4.3.5.8.7 1.2.4 1.2a.7.7 0 0 1-.3 0 4.2 4.2 0 0 0-1-.3c-2.6 0-5.7 2-5.7 4.3a3.2 3.2 0 0 1-2.5 3c-1.4.5-2.5 1.2-2.5 1.8a.6.6 0 0 1-.8.6 3.7 3.7 0 0 1-1.3-.3 3.7 3.7 0 0 0-1-.2c-.6 0-.6.3 0 1a2 2 0 0 0 1.7 1c2.4 0 6.8-3 13-9l5-4.4a5.7 5.7 0 0 1 2-1.2c.2 0 0 .5-.4 1.5-.5 1.3-.3 2.3.4 2.3s.3 1-1 2.5c-3 3.6-3.4 8.7-.6 8.8 2 0 2 .3-.3 1.5a7.4 7.4 0 0 1-2.4 1 .2.2 0 0 1-.2 0 7.5 7.5 0 0 0-2.3 2.2 6.6 6.6 0 0 1-5 2.7c-4 0-3.7 1.7.3 3.5a7.7 7.7 0 0 0 3.3.8 8.6 8.6 0 0 0 3-.6 6.6 6.6 0 0 1 2-.5c.7 0 1 0 1 .4a.2.2 0 0 0 .2.2c.4 0 1.6-.8 3-2 1.5-1.8 3.8-3 4.8-3s2-1.2 2.5-2.6c.5-1.6 1-2.4 1.8-2.4s1.6.8 2.6 2.4c1.4 2 1.3 2.5-.6 2.5s-2 .2-.4 1 1.5 1.3-.3 2a2.3 2.3 0 0 0-1.5 2.6 3.6 3.6 0 0 1-1.3 3.6c-1.3 1.2-1.4 2-.5 2.6 1.6 1-1 4.3-3.4 4.3a1.6 1.6 0 0 0-1.7 1.4c0 .5.8.7 2.3.7a31.5 31.5 0 0 0 3.6-.3 24.4 24.4 0 0 1 3.5-.3c1.3 0 1.8.3 1.6.5-1 1-2.2 1.4-8.4 2.4a30.7 30.7 0 0 0-3.7.7 10.4 10.4 0 0 1-2.3 0h-1.5c-2.3 0-2.6.2-.7.7 4 1 5.6 3.4 3.7 5a6.2 6.2 0 0 1-3.7 1.6c-1.6 0-1.7.4-.8 1.6.8 1 1 2 .7 2.5s0 1.2 1 1.7 2 1.3 1.5 2 0 1 1.2 1c4 0 15-3.6 17-6 1-1.4 7-5 8-5 .4.3 0 2-1 3.5s-2 2.7-3.3 2.7a3 3 0 0 1-.7-.2 13 13 0 0 0-1.5-.2c-.6 0 0 .4 1.6 1.7 2.2 1.6 2.2 2 .5 2-2.2 0-4 3.2-2.8 5 .3.7-.5 1.2-2 1.2s-2.8 1-3.3 3c-.3 2-2.3 4-4.3 5-2.4 1.4-3.4 2.6-3 4a3.5 3.5 0 0 0 1.3 1.7c2 0 19-9 21-11a8 8 0 0 1 5.2-2.7c1 0 1.7.4 1.7 1.3 0 .6-1.3 1.2-2.8 1.2-2 0-2.3.3-1 1.2 1.8 1 .8 6.3-1.3 6.3-.6 0-.8.5-.4 1.3a.7.7 0 0 1-.7 1.2c-.8 0-1.2.5-.7 1s-.5 1.5-2 1.6-3 1.3-3 2.3-1.3 2-3.5 2c-1.8.4-3.4 1.2-3.4 2s-1.3 2.6-2.8 3.7c-2.5 1.8-2.5 2-.5 2 1.4 0 2 .6 1.6 1.3-.3.5 0 .7.5.7 1.5 0 5-1.5 7.8-3.4a17.6 17.6 0 0 1 4-2.2 19.3 19.3 0 0 0 5-3c2-1.5 3.4-2 4.3-2 1.3 0 1.6 1 .8 3a2 2 0 0 1-1.7 1.4 1.3 1.3 0 0 1-.4 0 1.3 1.3 0 0 0-.5-.2 1.3 1.3 0 0 0-1 1.5 2 2 0 0 0 2 2c1 0 1.3.3.4.7a2 2 0 0 0-.7 2.5c.3.8.4 1.2 0 1.2a6.3 6.3 0 0 1-2-.8 4 4 0 0 0-2-.6c-1 0-1.3 1.3.6 2.5s-2.3 4.8-4.8 4.8a2 2 0 0 1-.8 0 3 3 0 0 0-1-.2 1 1 0 0 0-1 .8 2.7 2.7 0 0 0 1.8 2 2 2 0 0 1 1 2.6 1.6 1.6 0 0 1-1.2 1.3.8.8 0 0 1-.5 0 .8.8 0 0 0-.4-.3c-.4 0-.7.5-.7 1.4q0 2 1.2 2c1.3 0 4-2.2 8-6.3 5.5-5.6 10.5-9.2 12.7-9.2a1 1 0 0 1 1 .5c.3.7-.2 1.8-1.2 2.7-2.3 2-2.3 7.3.2 10 1.6 2 1.7 2.7.3 4.8a3.8 3.8 0 0 1-2.8 2 1 1 0 0 1-.4 0 2 2 0 0 0-.8-.2.8.8 0 0 0-.8.8.8.8 0 0 1-1 .7 2.6 2.6 0 0 1-1-.2 3 3 0 0 0-1-.2c-1.2 0-1 1.6.8 3.5.7.7 1 1 .8 1a8.7 8.7 0 0 1-2-.7 5.8 5.8 0 0 0-2.3-.8c-1.3 0-1.8 1-1.8 3.4 0 1.4-.3 2-1.4 2a10.5 10.5 0 0 1-2-.4 10.3 10.3 0 0 0-2-.3c-.6 0-.5.2.2.7 1.8 1.3 1 3.3-.8 3.3a3 3 0 0 1-1-.2 2.4 2.4 0 0 0-.8-.2c-.7 0-.8.5-.4 1.5s.6 1.3 1.4 1.3a13 13 0 0 0 4-1.3 36.8 36.8 0 0 0 9.7-6.8l5.2-5-1 5.4c-.4 3-1.3 5.7-1.7 6-2 .7-5 7.4-3.5 8.3a2.7 2.7 0 0 1 1.2 1.7c0 1-3 1.8-5.6 1.8a4.2 4.2 0 0 1-2.5-.6 3.3 3.3 0 0 0-2-1c-.8 0-1.2.5-1.2 1.6 0 .8 2 2.2 4.5 3a14.6 14.6 0 0 0 4.2.6 10.3 10.3 0 0 0 8.4-3.8 3.5 3.5 0 0 1 1-1.3c.3 0 .4.6.4 1.8a9.6 9.6 0 0 1-2.5 5.4c-1.5 1.4-2.2 2.7-1.6 2.7s-1 1-3 2-3.7 2.6-3.4 3.2c.7 1.2-.8 2-2.5 2a3.8 3.8 0 0 1-2.3-.7 2 2 0 0 0-1.3-.6c-.8 0-1.5.5-2.6 1.7a7.5 7.5 0 0 1-4.8 2.4h-2.4c-2.3 0-2.5.5-.4 1.3a5.4 5.4 0 0 0 2 .4 12 12 0 0 0 4.5-1 10.4 10.4 0 0 1 3.5-1 2.5 2.5 0 0 1 2 1 4 4 0 0 0 3 1.4 2.8 2.8 0 0 0 .5 0l5.4-1.2 6-1.3a6.3 6.3 0 0 1 1.6-.4c.8 0 0 1-2 4zM698 122.4h.5zm18-14.7a32.3 32.3 0 0 0-3.4-1 5.4 5.4 0 0 0 2.7-3h.5a3.6 3.6 0 0 0-.4 1.3 4 4 0 0 0 .7 2.7zm90 78.4l-.8.7a4.8 4.8 0 0 0 .2-.5h.4zm-5.4 5.2l-.4.4v-.2z" />
	<path class="cls-2" d="M773.6 163.4a1.2 1.2 0 0 0-1.3 1.2 1.3 1.3 0 1 0 1.3-1.2zM785.4 249.3c-1 0-2 .5-2 1.3a1.7 1.7 0 0 0 2 1.2c1 0 2-.6 2-1.2s-1-1.3-2-1.3zM695 240c-1.5 1-1.5 2 0 2a1.3 1.3 0 0 0 1.4-1.5.7.7 0 0 0-.7-.8 1 1 0 0 0-.6.3zM687.6 241.8a6 6 0 0 0 2 1.2c.5 0 .7-.4 1-1.2s-.4-1.2-2-1.2c-2.3 0-2.5.2-1 1.2zM719 131a2.4 2.4 0 0 0-2 1.3c-.5.7-.4 1.2.4 1.2a2.7 2.7 0 0 0 2-1.3c.4-.7.2-1.2-.5-1.2zM696.6 195a3.3 3.3 0 0 0-1.3-.4 1.4 1.4 0 0 0-1 .4c-.4.3 0 .6 1 .6h.6q2-.2.6-.7zM685 238.3c2.5-1 3.6-2.2 3-2.5a2 2 0 0 0-.6 0 4.8 4.8 0 0 0-3 1.2 3 3 0 0 1-1.6 1 1.5 1.5 0 0 1-1-1 2 2 0 0 0-2-1 19.4 19.4 0 0 0-4.5.8c-4 1-5 1.7-3.6 2.6a5 5 0 0 0 2.3 1c.7 0 1.2-.4 2.2-1.3a2.3 2.3 0 0 1 1.5-.7 2.6 2.6 0 0 1 1.6.6 2.8 2.8 0 0 0 1.8.6 10 10 0 0 0 4-1.3zM680.2 230.6a2.7 2.7 0 0 0 1.8-1.2c.3-.5.2-.7-.2-.7a2.7 2.7 0 0 0-1 .2c-2 .8-2.4 1.6-.6 1.6zM686 261a3.2 3.2 0 0 0-1.5 1 6.5 6.5 0 0 0-2 3.6c0 .3.3.5.5.5 1 0 3.4-3 3.4-4.6a.3.3 0 0 0-.3-.3zM718 281c-1-.4-1.2-1.6-1-2.7s.5-1.4 0-1.4a5 5 0 0 0-1.5.3 14.3 14.3 0 0 1-5 1.3 4 4 0 0 1-2.6-1 2 2 0 0 0-1.2-.5c-.3 0-.4.4-.4.8 0 .8-1 1.5-2.3 2-1.7.4-1.7.5.6 1.5a24.6 24.6 0 0 0 6.6.8c1.8 0 4 0 6.4-.3q1.8-.2.3-.8zM703.8 255.4a1.3 1.3 0 0 0-1.3-1c-.8 0-1-1-.7-2.4.4-1 .6-1.4.4-1.4a6 6 0 0 0-1.4 1.4c-.7 1-1.3 1.6-1.8 1.6a2.7 2.7 0 0 1-1.7-1c-1.2-1-5-1.8-7.8-1.8-1.8 0-3.2.3-3.2 1s-1 1-2 1c-2.5 0-2.3 2.4.3 3a56 56 0 0 0 10.2.6c4.7 0 9-.4 9-1z" />
</svg>