<svg xmlns="http://www.w3.org/2000/svg" viewBox="0 0 26 63.2">
	<style>
	.st0 {
		fill: #fff;
	}

	.st1 {
		fill: #aaa;
	}
	</style>
	<path class="st0" d="M3 .2c.9 0 1.7.4 2.3 1.2l20 28.5c.3.5.5 1 .5 1.6v.1c0 .6-.2 1.1-.5 1.6l-20 28.5C4.7 62.5 3.9 63 3 63c-.6 0-1.1-.2-1.6-.5-1.2-.9-1.5-2.6-.7-3.8l18.9-27L.7 4.6c-.9-1.2-.6-3 .7-3.8.5-.4 1-.6 1.6-.6z" />
	<path class="st1" d="M3 62.7c-.5 0-1-.1-1.4-.5-1.1-.8-1.4-2.4-.6-3.5l19-27.2L1 4.4C.2 3.3.4 1.7 1.6 1 2 .6 2.5.5 3 .5c.8 0 1.6.4 2.1 1.1l20 28.5c.3.4.5.9.5 1.4v.1c0 .5-.2 1-.5 1.4L5 61.7c-.4.6-1.2 1-2 1m0 .5c1 0 1.9-.5 2.5-1.3l20-28.5c.4-.5.5-1.1.5-1.7v-.1c0-.6-.2-1.2-.5-1.7L5.5 1.3C4.9.5 4 0 3 0c-.6 0-1.2.2-1.7.5-1.4.9-1.7 2.8-.7 4.2l18.8 26.9L.5 58.5c-.9 1.4-.6 3.2.7 4.2.6.3 1.2.5 1.8.5z" />
</svg>